<svg id="Layer_1" data-name="Layer 1" xmlns="http://www.w3.org/2000/svg" xmlns:xlink="http://www.w3.org/1999/xlink" viewBox="0 0 252.28 144.57"><defs><style>.cls-1{fill:none;}.cls-2,.cls-5,.cls-7{fill:url(#linear-gradient);}.cls-2{clip-rule:evenodd;}.cls-3{fill:#2f1110;}.cls-3,.cls-5,.cls-9{fill-rule:evenodd;}.cls-4{clip-path:url(#clip-path);}.cls-6{clip-path:url(#clip-path-2);}.cls-10,.cls-8,.cls-9{fill:#fff;}.cls-10{font-size:6.73px;font-family:DiscotechiaExpanded, Discotechia Expanded;letter-spacing:0.24em;}.cls-11{letter-spacing:0.08em;}</style><linearGradient id="linear-gradient" x1="-950.48" y1="65.05" x2="89.67" y2="65.05" gradientTransform="matrix(-1, 0, 0, 1, -860.82, 0)" gradientUnits="userSpaceOnUse"><stop offset="0.45" stop-color="#f0e3d2"/><stop offset="0.55" stop-color="#efe0cf"/><stop offset="0.63" stop-color="#ebd7c5"/><stop offset="0.71" stop-color="#e4c9b3"/><stop offset="0.78" stop-color="#dbb49b"/><stop offset="0.86" stop-color="#cf997c"/><stop offset="0.93" stop-color="#c17856"/><stop offset="0.99" stop-color="#b05229"/><stop offset="1" stop-color="#af4f26"/></linearGradient><clipPath id="clip-path"><rect class="cls-1" x="-742.91" y="-910.88" width="620.64" height="1015.2"/></clipPath><clipPath id="clip-path-2"><path class="cls-2" d="M-254.61,25.12H89.67V47.31A57.7,57.7,0,0,1,32,105H-892.78a57.68,57.68,0,0,1-57.7-57.16h635.69c38.8,0,16.85-22.71,60.18-22.71"/></clipPath></defs><path class="cls-3" d="M-2,5.58V144.13A14.19,14.19,0,0,0,12.2,158.32H239.6a14.19,14.19,0,0,0,14.2-14.19V5.58A14.19,14.19,0,0,0,239.6-8.6H12.2A14.18,14.18,0,0,0-2,5.58"/><g class="cls-4"><path class="cls-5" d="M-254.61,25.12H89.67V47.31A57.7,57.7,0,0,1,32,105H-892.78a57.68,57.68,0,0,1-57.7-57.16h635.69c38.8,0,16.85-22.71,60.18-22.71"/><g class="cls-6"><rect class="cls-7" x="-950.48" y="25.12" width="1040.15" height="79.87"/></g></g><path class="cls-8" d="M48.12,96.34c-6.41,0-8.29-2-8.29-7.46V82.05c0-5.49,1.88-7.46,8.29-7.46H63.21v4.17H48.34c-3,0-3.7.87-3.7,3.54v6.38c0,2.72.74,3.51,3.74,3.51H63.21v4.15Z"/><path class="cls-8" d="M66.33,96.34v-10c0-5.16,2.27-7.27,8.1-7.27h3.1v3.86h-3c-2.65,0-3.48.7-3.48,3.45v10Z"/><path class="cls-8" d="M84.42,96.34c-5,0-6.32-1.76-6.32-4.56V90.15c0-2.9,1.21-4.56,6-4.56H96.89v-.38c0-2.2-.83-2.78-2.94-2.78H89.23V79.05H94c5.52,0,7.69,2,7.69,6.38v4.21c0,5-1.75,6.7-7.88,6.7Zm12.47-7.82H84.61c-1.12,0-1.79.39-1.79,1.76v1.18c0,1.21.74,1.63,2,1.63H93.7c2.23,0,3.19-.51,3.19-3.1Z"/><path class="cls-8" d="M105.25,96.34V78.13c0-3.48,1.81-4.66,5.55-4.66h5.51v3.38h-4.78c-1.18,0-1.53.32-1.53,1.44v.76h6.28v3.86H110V96.34Z"/><path class="cls-8" d="M120.05,96.34V82.91h-2.43V79.05h2.43V74.17h4.84v4.88h5.46v3.86h-5.46V96.34Z"/><path class="cls-8" d="M150.15,90.12v6.22h-4.84V74.59h17.41c6.22,0,8.17,1.88,8.17,7v1.89c0,5.19-1.82,6.63-8.17,6.63ZM166,81.79c0-2.36-.83-3-3.45-3H150.15V86.2h12.51c2.55,0,3.38-.61,3.38-2.91Z"/><path class="cls-8" d="M173.92,96.34v-10c0-5.16,2.26-7.27,8.1-7.27h3.09v3.86h-3c-2.65,0-3.48.7-3.48,3.45v10Z"/><path class="cls-8" d="M195.61,96.34c-6.42,0-8.3-2-8.3-7.46V86.55c0-5.52,1.88-7.5,8.3-7.5h5.77c6.44,0,8.32,2,8.32,7.53v2.3c0,5.48-1.88,7.46-8.32,7.46ZM205,86.71c0-2.94-.76-3.58-4.21-3.58h-4.5c-3.38,0-4.17.64-4.17,3.58v2c0,2.87.79,3.57,4.17,3.57h4.5c3.45,0,4.21-.7,4.21-3.57Z"/><path class="cls-9" d="M112.43,67.16h1.9l2.1-4h19.22l2.11,4h1.9l-.92-4h1.34V60.81H112v2.31h1.35Z"/><path class="cls-8" d="M120.45,54.41c-3.86,0-4.8-1-4.8-4.52V41.68c0-3.45.94-4.56,4.76-4.56h2.48V31.74h-2.77c-8.25,0-10.67,2.55-10.67,9.61v8.79c0,7.06,2.42,9.61,10.67,9.61h19.43V54.41Z"/><path class="cls-8" d="M124.48,48.57v3.76h-2.93V39.17h10.53c3.76,0,4.94,1.14,4.94,4.25v1.14c0,3.14-1.1,4-4.94,4Zm9.61-5c0-1.42-.5-1.83-2.09-1.83h-7.52v4.5H132c1.55,0,2.05-.37,2.05-1.76Z"/><text class="cls-10" transform="translate(39.96 106.55)">FURNITURE MANU<tspan class="cls-11" x="92.17" y="0">F</tspan><tspan x="97.09" y="0">ACTURING LLC</tspan></text></svg>