<svg id="Layer_1" data-name="Layer 1" xmlns="http://www.w3.org/2000/svg" xmlns:xlink="http://www.w3.org/1999/xlink" viewBox="0 0 252.28 144.57"><defs><style>.cls-1{fill:none;}.cls-2{clip-path:url(#clip-path);}.cls-3{fill:#15133f;}.cls-4{fill:#cd6632;}.cls-5,.cls-6{fill:#2f1110;}.cls-6{fill-rule:evenodd;}.cls-7{font-size:7.73px;fill:#231f20;font-family:DiscotechiaExpanded, Discotechia Expanded;letter-spacing:0.24em;}.cls-8{letter-spacing:0.08em;}</style><clipPath id="clip-path"><path class="cls-1" d="M125.32-147.62a8.12,8.12,0,0,0-8.12,8.11,8.13,8.13,0,0,0,8.12,8.12,8.12,8.12,0,0,0,8.11-8.12A8.11,8.11,0,0,0,125.32-147.62Zm4.3,5-3.19,2.75-.38.33-.73.64-.74-.64-.38-.33L121-142.64Zm-8.88.42,3.08,2.66-3.08,2.66Zm.17,5.84,3.29-2.85,1.12,1,1.11-1,3.3,2.85Zm9-.52-3.08-2.66,3.08-2.66Z"/></clipPath></defs><g class="cls-2"><rect class="cls-1" x="-3.46" y="-132.96" width="162.48" height="142.98"/><rect class="cls-3" x="-3.46" y="-132.96" width="162.48" height="142.98"/></g><path class="cls-4" d="M36.5,99.92c-7.37,0-9.53-2.27-9.53-8.57V83.5c0-6.3,2.16-8.57,9.53-8.57H53.83v4.8H36.76c-3.41,0-4.25,1-4.25,4.07v7.33c0,3.11.84,4,4.28,4h17v4.76Z"/><path class="cls-4" d="M57.42,99.92V88.41c0-5.93,2.61-8.35,9.31-8.35h3.56v4.43H66.88c-3,0-4,.81-4,4V99.92Z"/><path class="cls-4" d="M78.2,99.92c-5.71,0-7.25-2-7.25-5.24V92.81c0-3.33,1.39-5.24,6.89-5.24H92.53v-.44c0-2.53-1-3.19-3.37-3.19H83.74V80.06h5.42c6.34,0,8.83,2.27,8.83,7.33v4.84c0,5.75-2,7.69-9,7.69Zm14.33-9H78.42c-1.28,0-2,.44-2,2v1.35c0,1.4.84,1.87,2.24,1.87H88.87c2.56,0,3.66-.58,3.66-3.55Z"/><path class="cls-4" d="M102.13,99.92V79c0-4,2.09-5.35,6.38-5.35h6.34v3.88h-5.5c-1.35,0-1.76.37-1.76,1.65v.88h7.22v4.43h-7.22V99.92Z"/><path class="cls-4" d="M119.14,99.92V84.49h-2.79V80.06h2.79V74.45h5.57v5.61H131v4.43h-6.26V99.92Z"/><path class="cls-5" d="M153.73,92.78v7.14h-5.57v-25h20c7.15,0,9.38,2.16,9.38,8.06v2.16c0,6-2.09,7.63-9.38,7.63ZM172,83.21c0-2.71-.95-3.48-4-3.48H153.73v8.54H168.1c2.93,0,3.88-.7,3.88-3.34Z"/><path class="cls-5" d="M181,99.92V88.41c0-5.93,2.6-8.35,9.31-8.35h3.55v4.43h-3.4c-3,0-4,.81-4,4V99.92Z"/><path class="cls-5" d="M206,99.92c-7.36,0-9.53-2.27-9.53-8.57V88.67c0-6.34,2.17-8.61,9.53-8.61h6.63c7.41,0,9.57,2.27,9.57,8.65v2.64c0,6.3-2.16,8.57-9.57,8.57Zm10.74-11.07c0-3.37-.88-4.1-4.84-4.1h-5.17c-3.88,0-4.8.73-4.8,4.1V91.2c0,3.3.92,4.1,4.8,4.1h5.17c4,0,4.84-.8,4.84-4.1Z"/><path class="cls-6" d="M110.39,66.39h2.18L115,61.76h22.08l2.42,4.63h2.18l-1.06-4.63h1.55V59.1H109.9v2.66h1.54Z"/><path class="cls-4" d="M119.61,51.75c-4.44,0-5.53-1.18-5.53-5.19V37.12c0-4,1.09-5.24,5.48-5.24h2.85V25.7h-3.18c-9.49,0-12.27,2.93-12.27,11v10.1c0,8.12,2.78,11,12.27,11h22.32V51.75Z"/><path class="cls-5" d="M124.23,45v4.32h-3.37V34.24H133c4.32,0,5.67,1.31,5.67,4.88v1.31C138.64,44,137.38,45,133,45Zm11-5.79c0-1.64-.57-2.1-2.39-2.1h-8.65v5.16h8.69c1.78,0,2.35-.42,2.35-2Z"/><text class="cls-7" transform="translate(27.12 111.66)">FURNITURE MANU<tspan class="cls-8" x="105.9" y="0">F</tspan><tspan x="111.55" y="0">ACTURING LLC</tspan></text></svg>