<svg id="Layer_1" data-name="Layer 1" xmlns="http://www.w3.org/2000/svg" viewBox="0 0 241.92 120.96"><defs><style>.cls-1{fill:#cd6632;}.cls-2{fill:#2f1110;}</style></defs><path class="cls-1" d="M32.9,73.62c-7.37,0-9.53-2.27-9.53-8.58V57.2c0-6.3,2.16-8.58,9.53-8.58H50.23v4.81H33.16c-3.41,0-4.25,1-4.25,4.06v7.33c0,3.12.84,4,4.28,4h17v4.77Z"/><path class="cls-1" d="M53.82,73.62V62.11c0-5.94,2.61-8.35,9.31-8.35h3.56v4.43H63.28c-3,0-4,.81-4,4V73.62Z"/><path class="cls-1" d="M74.6,73.62c-5.71,0-7.25-2-7.25-5.24V66.51c0-3.34,1.39-5.24,6.89-5.24H88.93v-.44c0-2.53-1-3.19-3.37-3.19H80.14V53.76h5.42c6.34,0,8.83,2.27,8.83,7.32v4.84c0,5.76-2,7.7-9,7.7Zm14.33-9H74.82c-1.28,0-2,.44-2,2V68c0,1.39.84,1.87,2.24,1.87H85.27c2.56,0,3.66-.59,3.66-3.55Z"/><path class="cls-1" d="M98.53,73.62V52.69c0-4,2.09-5.35,6.38-5.35h6.34v3.89h-5.5c-1.35,0-1.76.36-1.76,1.65v.88h7.22v4.43H104V73.62Z"/><path class="cls-1" d="M115.54,73.62V58.19h-2.79V53.76h2.79V48.15h5.57v5.61h6.26v4.43h-6.26V73.62Z"/><path class="cls-2" d="M150.13,66.47v7.15h-5.57v-25h20c7.14,0,9.38,2.17,9.38,8.07v2.16c0,6-2.09,7.62-9.38,7.62Zm18.25-9.56c0-2.71-.95-3.48-4-3.48H150.13V62H164.5c2.93,0,3.88-.69,3.88-3.33Z"/><path class="cls-2" d="M177.43,73.62V62.11c0-5.94,2.6-8.35,9.31-8.35h3.55v4.43h-3.4c-3,0-4,.81-4,4V73.62Z"/><path class="cls-2" d="M202.35,73.62c-7.37,0-9.53-2.27-9.53-8.58V62.37c0-6.34,2.16-8.61,9.53-8.61H209c7.41,0,9.57,2.27,9.57,8.64V65c0,6.31-2.16,8.58-9.57,8.58Zm10.74-11.07c0-3.37-.88-4.1-4.84-4.1h-5.17c-3.88,0-4.8.73-4.8,4.1V64.9c0,3.29.92,4.1,4.8,4.1h5.17c4,0,4.84-.81,4.84-4.1Z"/></svg>