<svg id="Layer_1" data-name="Layer 1" xmlns="http://www.w3.org/2000/svg" viewBox="0 0 212.76 128.52"><defs><style>.cls-1{fill:#cd6632;}.cls-2,.cls-3{fill:#fff;}.cls-2{fill-rule:evenodd;}</style></defs><rect class="cls-1" x="-3.24" width="220.32" height="131.76"/><path class="cls-2" d="M75.2,109H80l5.33-10.19H133.9L139.23,109H144L141.7,98.83h3.41V93h-71v5.84h3.4Z"/><path class="cls-3" d="M95.48,76.8c-9.76,0-12.15-2.59-12.15-11.42V44.62c0-8.72,2.39-11.52,12-11.52h6.28V19.5h-7c-20.87,0-27,6.43-27,24.29V66c0,17.86,6.13,24.3,27,24.3h49.1V76.8Z"/><path class="cls-3" d="M105.66,62v9.51H98.24V38.29h26.63c9.52,0,12.49,2.88,12.49,10.73V51.9c0,8-2.78,10.14-12.49,10.14ZM130,49.31c0-3.61-1.27-4.63-5.27-4.63h-19V56h19.12c3.9,0,5.17-.92,5.17-4.43Z"/></svg>