<svg id="Layer_1" data-name="Layer 1" xmlns="http://www.w3.org/2000/svg" viewBox="0 0 252.28 144.57"><defs><style>.cls-1,.cls-3{fill:#44151f;}.cls-1{fill-rule:evenodd;}.cls-2{fill:#af4f26;}.cls-4{font-size:3.7px;fill:#231f20;font-family:DiscotechiaExpanded, Discotechia Expanded;letter-spacing:0.24em;}.cls-5{letter-spacing:0.08em;}.cls-6{letter-spacing:0.24em;}</style></defs><path class="cls-1" d="M238.28,49.15h0c0-.7-.6-1-1.12-1.13s-.76-.25-.76-.46h0c0-.15.13-.27.39-.27a2.21,2.21,0,0,1,1,.36l.4-.75a2.6,2.6,0,0,0-1.39-.44,1.23,1.23,0,0,0-1.36,1.21h0c0,.74.59,1,1.11,1.15s.77.21.77.44h0c0,.18-.14.29-.44.29a2.05,2.05,0,0,1-1.17-.46l-.46.72a2.63,2.63,0,0,0,1.6.57c.81,0,1.42-.38,1.42-1.23m-3.41,0h0c0-.7-.61-1-1.13-1.13s-.75-.25-.75-.46h0c0-.15.13-.27.39-.27a2.18,2.18,0,0,1,1,.36l.41-.75a2.62,2.62,0,0,0-1.39-.44A1.23,1.23,0,0,0,232,47.65h0c0,.74.59,1,1.11,1.15s.77.21.77.44h0c0,.18-.14.29-.45.29a2.08,2.08,0,0,1-1.17-.46l-.45.72a2.61,2.61,0,0,0,1.59.57C234.25,50.38,234.87,50,234.87,49.15Zm-4.54-1h-1.59c.08-.5.37-.82.8-.82S230.27,47.62,230.33,48.11Zm1,.4h0a1.84,1.84,0,0,0-1.82-2.07,1.88,1.88,0,0,0-1.84,2v0a1.89,1.89,0,0,0,2,2,1.83,1.83,0,0,0,1.52-.72l-.61-.54a1.21,1.21,0,0,1-.9.39.88.88,0,0,1-.91-.75h2.59A2.28,2.28,0,0,0,231.36,48.51Zm-4-.95V46.43a1.16,1.16,0,0,0-1.19.84V46.5h-1v3.81h1V48.9c0-.91.43-1.34,1.13-1.34Zm-4.23.85a.92.92,0,1,1-1.81,0h0a.92.92,0,1,1,1.81,0Zm1,1.9V45.12h-1V47a1.41,1.41,0,0,0-1.16-.57,1.76,1.76,0,0,0-1.69,2h0a1.78,1.78,0,0,0,1.69,2,1.35,1.35,0,0,0,1.16-.62v.55Zm-5.72-1.9a.92.92,0,1,1-1.82,0h0a.92.92,0,1,1,1.82,0Zm1,1.9V45.12H218.4V47a1.4,1.4,0,0,0-1.16-.57,1.76,1.76,0,0,0-1.69,2h0a1.78,1.78,0,0,0,1.69,2,1.34,1.34,0,0,0,1.16-.62v.55Zm-6.15-2.08H212l.64-1.62Zm1.94,2.08-2.08-5h-1l-2.08,5h1.09l.44-1.12h2.06l.44,1.12ZM207.7,46.5h-1.1l-.81,2.59-.85-2.59h-1.11l1.45,3.82a.34.34,0,0,1-.36.25.93.93,0,0,1-.46-.15l-.35.79a1.76,1.76,0,0,0,.94.26c.63,0,.93-.29,1.22-1.07Zm-4.35,3.81V47.84a1.24,1.24,0,0,0-1.27-1.41A1.33,1.33,0,0,0,201,47V46.5h-1.05v3.81H201V48.18c0-.51.26-.77.66-.77s.64.26.64.77v2.13ZM198,49c0,.39-.33.66-.83.66-.34,0-.57-.17-.57-.46h0c0-.34.27-.53.73-.53a1.7,1.7,0,0,1,.67.14Zm1,1.34V48.1a1.47,1.47,0,0,0-1.66-1.64,3.28,3.28,0,0,0-1.44.3l.26.83a2.63,2.63,0,0,1,1-.21c.52,0,.8.25.8.7v.06a2.69,2.69,0,0,0-.91-.16c-.89,0-1.5.39-1.5,1.22v0a1.15,1.15,0,0,0,1.27,1.16A1.43,1.43,0,0,0,198,49.9v.41Zm-5-1.9a.92.92,0,1,1-1.82,0h0a.92.92,0,1,1,1.82,0Zm1.05,0h0a1.77,1.77,0,0,0-1.69-2,1.35,1.35,0,0,0-1.16.62V46.5h-1.06v5h1.06V49.81a1.41,1.41,0,0,0,1.16.57A1.77,1.77,0,0,0,195.05,48.41Zm-4.82,1.9V47.83c0-.92-.48-1.4-1.26-1.4a1.52,1.52,0,0,0-1.22.6,1.12,1.12,0,0,0-1.05-.6,1.34,1.34,0,0,0-1.1.61V46.5h-1v3.81h1V48.18c0-.51.25-.77.64-.77s.62.26.62.77v2.13h1.06V48.18c0-.51.24-.77.63-.77s.62.26.62.77v2.13Zm-7.49-1.88a1,1,0,0,1-1,1,1,1,0,0,1-1-1.05h0a1,1,0,0,1,1-1,1,1,0,0,1,1,1Zm1,0h0a2,2,0,0,0-4,0v0a2,2,0,0,0,2,2A2,2,0,0,0,183.79,48.41Zm-4.52,1.1-.68-.71a1.75,1.75,0,0,1-1.28.59,1.47,1.47,0,0,1-1.41-1.57h0a1.46,1.46,0,0,1,1.41-1.55,1.76,1.76,0,0,1,1.24.56l.68-.81a2.61,2.61,0,0,0-4.45,1.81h0a2.55,2.55,0,0,0,4.49,1.68Zm-7.13-1.95V46.43a1.14,1.14,0,0,0-1.18.84V46.5H169.9v3.81H171V48.9c0-.91.43-1.34,1.13-1.34ZM169,50.31V46.5H167.9v2.12c0,.52-.25.78-.66.78s-.64-.26-.64-.78V46.5h-1V49c0,.87.46,1.41,1.26,1.41a1.3,1.3,0,0,0,1.09-.61v.54Zm-5.19-1.88a1,1,0,0,1-1,1,1,1,0,0,1-1-1.05h0a1,1,0,0,1,1-1,1,1,0,0,1,1,1Zm1,0h0a2,2,0,0,0-2-2,2,2,0,0,0-2,2v0a2,2,0,0,0,2,2A2,2,0,0,0,164.81,48.41Zm-3.63-3.08H160l-1.18,2-1.16-2h-1.25l1.87,3v2h1.07v-2Z"/><path class="cls-1" d="M226.71,64.61V63.48a1.14,1.14,0,0,0-1.19.84v-.77h-1.06v3.81h1.06V66c0-.92.43-1.35,1.13-1.35Zm-4.06.55h-1.59c.08-.49.37-.81.81-.81S222.59,64.67,222.65,65.16Zm1,.4h0a1.84,1.84,0,0,0-1.81-2.07,1.88,1.88,0,0,0-1.84,2v0a1.88,1.88,0,0,0,1.94,2,1.85,1.85,0,0,0,1.52-.71l-.6-.55a1.2,1.2,0,0,1-.91.39.86.86,0,0,1-.9-.75h2.58A2.28,2.28,0,0,0,223.68,65.56Zm-5.31-.1a.92.92,0,1,1-1.81,0h0a.92.92,0,1,1,1.81,0Zm1.06,0h0a1.78,1.78,0,0,0-1.69-2,1.34,1.34,0,0,0-1.16.62V62.17h-1.06v5.19h1.06v-.49a1.42,1.42,0,0,0,1.16.56A1.76,1.76,0,0,0,219.43,65.46Zm-4.82,1.9V64.88c0-.92-.48-1.4-1.26-1.4a1.5,1.5,0,0,0-1.22.6,1.12,1.12,0,0,0-1-.6,1.33,1.33,0,0,0-1.1.61v-.54h-1v3.81h1V65.24c0-.52.25-.78.64-.78s.62.26.62.78v2.12h1V65.24c0-.52.25-.78.64-.78s.62.26.62.78v2.12Zm-6.63,0V63.55h-1v2.13c0,.51-.26.77-.66.77s-.64-.26-.64-.77V63.55h-1V66c0,.87.46,1.41,1.26,1.41a1.31,1.31,0,0,0,1.09-.61v.54Zm-4.43,0v-5h-1.06v3.07l-2.27-3.07h-1v5h1.06V64.2l2.35,3.16Zm-8.33-2.2h-1.59c.09-.49.37-.81.81-.81S195.16,64.67,195.22,65.16Zm1,.4h0a1.84,1.84,0,0,0-1.81-2.07,1.88,1.88,0,0,0-1.84,2v0a1.89,1.89,0,0,0,1.94,2,1.83,1.83,0,0,0,1.52-.71l-.6-.55a1.19,1.19,0,0,1-.9.39.87.87,0,0,1-.91-.75h2.59A2.35,2.35,0,0,0,196.25,65.56Zm-4.39,1.8V64.9c0-.88-.46-1.42-1.26-1.42a1.31,1.31,0,0,0-1.09.61v-.54h-1v3.81h1V65.24c0-.52.26-.78.66-.78s.64.26.64.78v2.12Zm-5.21-1.88a1,1,0,0,1-1,1,1,1,0,0,1-1-1.06h0a1,1,0,0,1,1-1,1,1,0,0,1,1,1Zm1,0h0a2,2,0,0,0-2-2,2,2,0,0,0-2,2v0a2,2,0,0,0,2,2A2,2,0,0,0,187.69,65.46Zm-4.76,1.9V64.9c0-.88-.46-1.42-1.26-1.42a1.3,1.3,0,0,0-1.09.61V62.17h-1.06v5.19h1.06V65.24c0-.52.25-.78.66-.78s.64.26.64.78v2.12Zm-5.17-3.22a.76.76,0,0,1-.85.76h-.84V63.37h.82c.54,0,.87.27.87.76Zm1.08,0h0A1.69,1.69,0,0,0,177,62.38h-2v5h1.07V65.87h.81A1.75,1.75,0,0,0,178.84,64.12Zm-6.7.49V63.48a1.14,1.14,0,0,0-1.18.84v-.77H169.9v3.81H171V66c0-.92.43-1.35,1.13-1.35ZM169,67.36V63.55H167.9v2.13c0,.51-.25.77-.66.77s-.64-.26-.64-.77V63.55h-1V66c0,.87.46,1.41,1.26,1.41a1.3,1.3,0,0,0,1.09-.61v.54Zm-5.19-1.88a1,1,0,0,1-1,1,1,1,0,0,1-1-1.06h0a1,1,0,0,1,1-1,1,1,0,0,1,1,1Zm1,0h0a2,2,0,0,0-2-2,2,2,0,0,0-2,2v0a2,2,0,0,0,2,2A2,2,0,0,0,164.81,65.46Zm-3.63-3.08H160l-1.18,2-1.16-2h-1.25l1.87,3v2h1.07v-2Z"/><path class="cls-1" d="M225.92,83.84V78.65h-1v5.19Zm-2.1,0V80h-1v3.81Zm0-4.23v-1h-1.11v1Zm-3,2.89c0,.39-.33.66-.83.66-.34,0-.57-.17-.57-.46h0c0-.34.28-.53.73-.53a1.7,1.7,0,0,1,.67.14Zm1,1.34V81.63A1.47,1.47,0,0,0,220.15,80a3.28,3.28,0,0,0-1.44.3l.26.83a2.67,2.67,0,0,1,1-.21c.53,0,.8.25.8.7v.06a2.71,2.71,0,0,0-.91-.15c-.88,0-1.5.38-1.5,1.21v0a1.16,1.16,0,0,0,1.28,1.16,1.42,1.42,0,0,0,1.12-.48v.41Zm-4.11,0V81.36c0-.92-.48-1.4-1.26-1.4a1.5,1.5,0,0,0-1.22.6,1.13,1.13,0,0,0-1.05-.6,1.33,1.33,0,0,0-1.1.61V80h-1v3.81h1V81.71c0-.51.25-.77.64-.77s.62.26.62.77v2.13h1V81.71c0-.51.25-.77.64-.77s.62.26.62.77v2.13Zm-6.52,0v-1h-2.64V81.82h2.29v-1h-2.29v-1h2.6v-1h-3.66v5Zm-6.65-1.16h0c0-.7-.61-1-1.13-1.13s-.75-.25-.75-.46h0c0-.15.13-.27.38-.27a2.21,2.21,0,0,1,1,.36l.4-.75a2.56,2.56,0,0,0-1.38-.44,1.24,1.24,0,0,0-1.37,1.21h0c0,.74.59,1,1.11,1.15s.78.21.78.44h0c0,.18-.14.29-.45.29a2.05,2.05,0,0,1-1.17-.46l-.45.72a2.59,2.59,0,0,0,1.59.57C203.91,83.91,204.53,83.53,204.53,82.68Zm-3.42,0h0c0-.7-.6-1-1.12-1.13s-.76-.25-.76-.46h0c0-.15.13-.27.39-.27a2.21,2.21,0,0,1,1,.36l.4-.75a2.6,2.6,0,0,0-1.39-.44,1.23,1.23,0,0,0-1.36,1.21h0c0,.74.59,1,1.11,1.15s.77.21.77.44h0c0,.18-.14.29-.44.29a2.1,2.1,0,0,1-1.18-.46l-.45.72a2.61,2.61,0,0,0,1.6.57C200.49,83.91,201.11,83.53,201.11,82.68Zm-4.54-1H195c.09-.49.37-.82.81-.82S196.51,81.15,196.57,81.64Zm1,.4h0A1.84,1.84,0,0,0,195.79,80a1.87,1.87,0,0,0-1.84,2v0a1.88,1.88,0,0,0,1.94,2,1.83,1.83,0,0,0,1.52-.72l-.6-.54a1.23,1.23,0,0,1-.9.39.86.86,0,0,1-.91-.75h2.59C197.59,82.21,197.6,82.15,197.6,82Zm-4.39,1.8V81.37c0-.87-.46-1.41-1.26-1.41a1.3,1.3,0,0,0-1.09.61V80H189.8v3.81h1.06V81.71c0-.51.26-.77.66-.77s.64.26.64.77v2.13Zm-4.4,0V80h-1.05v3.81Zm0-4.23v-1h-1.11v1ZM187,82.68h0c0-.7-.6-1-1.12-1.13s-.76-.25-.76-.46h0c0-.15.13-.27.39-.27a2.14,2.14,0,0,1,1,.36l.41-.75a2.62,2.62,0,0,0-1.39-.44,1.23,1.23,0,0,0-1.36,1.21h0c0,.74.59,1,1.11,1.15s.77.21.77.44h0c0,.18-.14.29-.44.29a2.08,2.08,0,0,1-1.18-.46l-.45.72a2.61,2.61,0,0,0,1.6.57C186.33,83.91,187,83.53,187,82.68Zm-3.67,1.16V80h-1.06v2.12c0,.52-.25.78-.66.78s-.63-.26-.63-.78V80h-1.06V82.5c0,.87.46,1.41,1.26,1.41a1.3,1.3,0,0,0,1.09-.61v.54Zm-5.21-1.5c0,.37-.29.54-.76.54H176V81.79h1.23c.55,0,.8.2.8.54Zm-.28-2c0,.37-.29.52-.77.52h-1V79.82h1.05c.45,0,.7.19.7.51Zm1.34,2.13v0a1.21,1.21,0,0,0-.91-1.22,1.16,1.16,0,0,0,.64-1.08h0c0-.78-.61-1.29-1.61-1.29H175v5h2.31C178.41,83.84,179.13,83.38,179.13,82.48Zm-7-1.39V80a1.14,1.14,0,0,0-1.18.84V80H169.9v3.81H171V82.43c0-.91.43-1.34,1.13-1.34ZM169,83.84V80H167.9v2.12c0,.52-.25.78-.66.78s-.64-.26-.64-.78V80h-1V82.5c0,.87.46,1.41,1.26,1.41a1.3,1.3,0,0,0,1.09-.61v.54ZM163.77,82a1,1,0,0,1-1,1,1,1,0,0,1-1-1h0a1,1,0,0,1,1-1,1,1,0,0,1,1,1Zm1,0h0a2,2,0,0,0-2-2,2,2,0,0,0-2,2v0a2,2,0,0,0,2,2A2,2,0,0,0,164.81,81.94Zm-3.63-3.08H160l-1.18,2-1.16-2h-1.25l1.87,3v2h1.07v-2Z"/><path class="cls-1" d="M234.44,96.62h-1.58c.08-.49.36-.81.8-.81s.72.33.78.81m1,.41v0a1.84,1.84,0,0,0-1.81-2.07,1.88,1.88,0,0,0-1.84,2h0a1.88,1.88,0,0,0,1.94,2,1.86,1.86,0,0,0,1.53-.71l-.61-.55a1.19,1.19,0,0,1-.9.39.86.86,0,0,1-.91-.74h2.59A2.44,2.44,0,0,0,235.47,97Zm-4.16,1.64V97.8a1,1,0,0,1-.52.14c-.23,0-.34-.12-.34-.37V95.94h.88V95h-.88V94h-1v1H229v.93h.45v1.8c0,.89.44,1.15,1.08,1.15A1.54,1.54,0,0,0,231.31,98.67Zm-3.08.16V95h-1v3.82Zm0-4.24v-1h-1.11v1Zm-1.89,3.08v0c0-.69-.6-1-1.12-1.13s-.76-.24-.76-.45v0c0-.15.13-.26.39-.26a2.1,2.1,0,0,1,1,.36l.4-.75A2.51,2.51,0,0,0,224.9,95a1.22,1.22,0,0,0-1.36,1.21h0c0,.74.59,1,1.11,1.15s.77.2.77.44h0c0,.17-.14.28-.44.28a2.08,2.08,0,0,1-1.18-.45l-.45.71a2.57,2.57,0,0,0,1.6.58C225.75,98.9,226.37,98.51,226.37,97.67Zm-4.56-.74a.92.92,0,1,1-1.81,0v0a.92.92,0,1,1,1.81,0Zm1.06,0v0a1.78,1.78,0,0,0-1.7-2,1.38,1.38,0,0,0-1.16.62V93.63h-1v5.2h1v-.5a1.44,1.44,0,0,0,1.16.57A1.78,1.78,0,0,0,222.87,96.93Zm-5.72-.31h-1.59c.08-.49.37-.81.8-.81S217.08,96.14,217.15,96.62Zm1,.41v0a1.84,1.84,0,0,0-1.81-2.07,1.88,1.88,0,0,0-1.84,2h0a1.89,1.89,0,0,0,1.95,2A1.85,1.85,0,0,0,218,98.2l-.61-.55a1.19,1.19,0,0,1-.9.39.86.86,0,0,1-.91-.74h2.59A2.44,2.44,0,0,0,218.17,97Zm-3.7-3.18h-1.11l-1,3.37-1.09-3.39h-.92l-1.09,3.39-1-3.37H207.1l1.66,5h.93l1.1-3.26,1.09,3.26h.94Zm-9.94,3.82v0c0-.69-.61-1-1.13-1.13s-.75-.24-.75-.45v0c0-.15.13-.26.38-.26a2.07,2.07,0,0,1,1,.36l.4-.75a2.48,2.48,0,0,0-1.38-.44,1.23,1.23,0,0,0-1.37,1.21h0c0,.74.6,1,1.11,1.15s.78.2.78.44h0c0,.17-.14.28-.45.28a2,2,0,0,1-1.17-.45l-.45.71a2.54,2.54,0,0,0,1.59.58C203.91,98.9,204.53,98.51,204.53,97.67Zm-3.42,0v0c0-.69-.6-1-1.12-1.13s-.76-.24-.76-.45v0c0-.15.13-.26.39-.26a2.1,2.1,0,0,1,1,.36l.4-.75a2.51,2.51,0,0,0-1.39-.44,1.22,1.22,0,0,0-1.36,1.21h0c0,.74.59,1,1.11,1.15s.77.2.77.44h0c0,.17-.14.28-.44.28a2.08,2.08,0,0,1-1.18-.45l-.45.71a2.57,2.57,0,0,0,1.6.58C200.49,98.9,201.11,98.51,201.11,97.67Zm-4.54-1H195c.09-.49.37-.81.81-.81A.81.81,0,0,1,196.57,96.62Zm1,.41v0a1.84,1.84,0,0,0-1.81-2.07,1.88,1.88,0,0,0-1.84,2h0a1.88,1.88,0,0,0,1.94,2,1.85,1.85,0,0,0,1.52-.71l-.6-.55a1.19,1.19,0,0,1-.9.39.86.86,0,0,1-.91-.74h2.59C197.59,97.2,197.6,97.13,197.6,97Zm-4.39,1.8V96.36c0-.88-.46-1.42-1.26-1.42a1.28,1.28,0,0,0-1.09.62V95H189.8v3.82h1.06V96.7c0-.51.26-.78.66-.78s.64.27.64.78v2.13Zm-4.4,0V95h-1.05v3.82Zm0-4.24v-1h-1.11v1ZM187,97.67v0c0-.69-.6-1-1.12-1.13s-.76-.24-.76-.45v0c0-.15.13-.26.39-.26a2.1,2.1,0,0,1,1,.36l.4-.75a2.51,2.51,0,0,0-1.39-.44,1.22,1.22,0,0,0-1.36,1.21h0c0,.74.59,1,1.11,1.15s.77.2.77.44h0c0,.17-.14.28-.44.28a2.06,2.06,0,0,1-1.18-.45l-.45.71a2.57,2.57,0,0,0,1.6.58C186.33,98.9,187,98.51,187,97.67Zm-3.67,1.16V95h-1.06v2.13c0,.51-.25.78-.66.78s-.63-.27-.63-.78V95h-1.06v2.47c0,.88.46,1.42,1.26,1.42a1.3,1.3,0,0,0,1.09-.61v.54Zm-5.21-1.5c0,.36-.29.54-.76.54H176v-1.1h1.23c.55,0,.8.21.8.54Zm-.28-2c0,.37-.29.53-.77.53h-1v-1h1.05c.46,0,.7.18.7.51Zm1.34,2.13h0a1.22,1.22,0,0,0-.91-1.23,1.15,1.15,0,0,0,.64-1.07v0c0-.78-.61-1.28-1.61-1.28H175v5h2.31C178.41,98.83,179.13,98.37,179.13,97.46Zm-7-1.39V94.94a1.15,1.15,0,0,0-1.18.84V95H169.9v3.82H171V97.42c0-.91.43-1.35,1.13-1.35ZM169,98.83V95H167.9v2.13c0,.51-.25.78-.66.78s-.64-.27-.64-.78V95h-1v2.47c0,.88.47,1.42,1.26,1.42a1.3,1.3,0,0,0,1.09-.61v.54Zm-5.19-1.89a1,1,0,0,1-1,1,1,1,0,0,1-1-1v0a1,1,0,0,1,1-1,1,1,0,0,1,1,1.06Zm1,0v0a2,2,0,0,0-2-2,2,2,0,0,0-2,2h0a2,2,0,0,0,2,2A2,2,0,0,0,164.81,96.93Zm-3.63-3.08H160l-1.18,2-1.16-2h-1.25l1.87,3v2h1.07v-2Z"/><path class="cls-1" d="M144.11,47.11c-1.63,1-2.08,1,0,1V50.4a.27.27,0,0,0,.26.27h1.43V49.44a.45.45,0,1,1,.89,0v1.23h1.43a.27.27,0,0,0,.26-.27V48.14c2.08,0,1.63,0,0-1l-.24-.15c-2.27-1.39-1.52-1.39-3.79,0l-.24.15M142.76,43h7a1.67,1.67,0,0,1,1.64,1.69v7.13a1.67,1.67,0,0,1-1.64,1.69h-7a1.67,1.67,0,0,1-1.64-1.69V44.73A1.67,1.67,0,0,1,142.76,43Z"/><path class="cls-1" d="M146.49,66a9,9,0,0,1-1.56-1.66.32.32,0,0,1-.06-.25c0-.11.31-.54.38-.67s0-.28-.1-.44l-.64-1c-.15-.25-.43-.14-.63,0a1.06,1.06,0,0,0-.52,1.18c.19,1.67,2.69,4.09,4.25,4.58a2.1,2.1,0,0,0,.24.06,1,1,0,0,0,.66-.06,1.75,1.75,0,0,0,.57-.67.3.3,0,0,0,0-.42,1,1,0,0,0-.21-.15l-.93-.6a.32.32,0,0,0-.43,0,5.09,5.09,0,0,1-.55.31.42.42,0,0,1-.43-.15m-3.73-6.47h7a1.67,1.67,0,0,1,1.64,1.68v7.14a1.67,1.67,0,0,1-1.64,1.68h-7a1.67,1.67,0,0,1-1.64-1.68V61.24A1.67,1.67,0,0,1,142.76,59.56Z"/><path class="cls-1" d="M145.17,81.24l-.32.31c-.25.23-.49.46-.75.68l-.6.53v-3l.61.53.75.69c.1.1.2.2.31.29m3.68-1.73-.6.52c-.47.42-.82.76-1.09,1l-.23.21c-.54.48-.75.48-1.3,0L145.4,81c-.27-.25-.62-.58-1.09-1l-.6-.53h5.14Zm.14.29v2.91l-.55-.48-.74-.68-.31-.3.32-.3.74-.69Zm.23-.2a.45.45,0,0,0-.43-.35H143.7a.37.37,0,0,0-.21.06.45.45,0,0,0-.21.24.77.77,0,0,0,0,.15V83a.55.55,0,0,0,.17.27.42.42,0,0,0,.27.09h5.09a.45.45,0,0,0,.44-.41V79.7A.38.38,0,0,0,149.22,79.6Zm-2.06,1.86c.27.25.62.59,1.09,1l.65.57-.11,0h-5.17l.69-.59,1.09-1a1.07,1.07,0,0,0,1.76,0ZM142.76,76h7a1.66,1.66,0,0,1,1.64,1.68v7.13a1.67,1.67,0,0,1-1.64,1.69h-7a1.67,1.67,0,0,1-1.64-1.69V77.72A1.66,1.66,0,0,1,142.76,76Z"/><path class="cls-1" d="M147.15,97.78a3.77,3.77,0,0,0-.75-.11v1.1a3.41,3.41,0,0,0,.75-1Zm-1.06,1V97.68a4.19,4.19,0,0,0-.71.1A3.37,3.37,0,0,0,146.09,98.75Zm0-2.32H145a3.44,3.44,0,0,0,.21,1.06,3.49,3.49,0,0,1,.84-.13Zm1.41,0h-1.1v.92a3.74,3.74,0,0,1,.88.13A3.33,3.33,0,0,0,147.5,96.43Zm-1.41-1.2a4.08,4.08,0,0,1-.85-.14,3.24,3.24,0,0,0-.2,1h1.05Zm1.2-.13a4.45,4.45,0,0,1-.89.13v.88h1.1A3.43,3.43,0,0,0,147.29,95.1Zm-.89-.19a4.08,4.08,0,0,0,.77-.11l0,0a3.41,3.41,0,0,0-.75-1Zm-1-.12a3.58,3.58,0,0,0,.73.11V93.79a3.12,3.12,0,0,0-.71,1Zm-1-.4a3.31,3.31,0,0,0,.66.31l0-.08a3.78,3.78,0,0,1,.68-1,2.6,2.6,0,0,0-1.38.74Zm-.75,1.72h1.07a3.77,3.77,0,0,1,.22-1.11,3.69,3.69,0,0,1-.75-.36A2.69,2.69,0,0,0,143.65,96.11Zm.56,1.82a4.52,4.52,0,0,1,.74-.35,4,4,0,0,1-.23-1.15h-1.07A2.6,2.6,0,0,0,144.21,97.93Zm1.57,1a3.66,3.66,0,0,1-.68-1l0,0a2.92,2.92,0,0,0-.65.3A2.69,2.69,0,0,0,145.78,98.9Zm.52.36h-.21a2.89,2.89,0,0,1-1.91-.87,3.06,3.06,0,0,1,0-4.23,2.84,2.84,0,0,1,1.91-.87h.21a2.92,2.92,0,0,1,2,.88,3.06,3.06,0,0,1,0,4.23A2.86,2.86,0,0,1,146.3,99.26Zm1.79-1.11a3,3,0,0,0-.63-.28l0,.07a3.59,3.59,0,0,1-.7,1,2.53,2.53,0,0,0,1.35-.73Zm.75-1.72h-1a3.92,3.92,0,0,1-.23,1.14,5.05,5.05,0,0,1,.71.33A2.66,2.66,0,0,0,148.84,96.43Zm-.52-1.77a4.28,4.28,0,0,1-.72.34,4.13,4.13,0,0,1,.22,1.11h1A2.71,2.71,0,0,0,148.32,94.66Zm-1.59-1a3.64,3.64,0,0,1,.7,1l0,.09a3.32,3.32,0,0,0,.64-.29l0,0A2.61,2.61,0,0,0,146.73,93.65Zm-4-2.63h7a1.67,1.67,0,0,1,1.64,1.69v7.13a1.66,1.66,0,0,1-1.64,1.68h-7a1.66,1.66,0,0,1-1.64-1.68V92.71A1.67,1.67,0,0,1,142.76,91Z"/><path class="cls-2" d="M17.1,85.53c-3.53,0-4.57-1.09-4.57-4.11V77.66c0-3,1-4.11,4.57-4.11h8.3v2.3H17.22c-1.63,0-2,.48-2,2v3.51c0,1.49.41,1.93,2.06,1.93H25.4v2.29Z"/><path class="cls-2" d="M27.12,85.53V80c0-2.84,1.25-4,4.46-4h1.71v2.12H31.65c-1.46,0-1.91.39-1.91,1.9v5.5Z"/><path class="cls-2" d="M37.08,85.53c-2.74,0-3.48-1-3.48-2.52v-.89c0-1.6.67-2.51,3.3-2.51h7V79.4c0-1.21-.45-1.53-1.61-1.53h-2.6V76h2.6c3,0,4.23,1.09,4.23,3.51v2.32c0,2.75-1,3.69-4.34,3.69Zm6.86-4.31H37.18c-.61,0-1,.21-1,1v.65c0,.67.4.89,1.07.89h4.92c1.23,0,1.75-.28,1.75-1.7Z"/><path class="cls-2" d="M48.54,85.53v-10c0-1.91,1-2.56,3.06-2.56h3V74.8H52c-.65,0-.84.17-.84.79V76h3.46v2.12H51.16v7.4Z"/><path class="cls-2" d="M56.69,85.53v-7.4H55.36V76h1.33V73.32h2.67V76h3v2.12h-3v7.4Z"/><path class="cls-3" d="M73.26,82.1v3.43H70.59v-12h9.59c3.43,0,4.5,1,4.5,3.86v1c0,2.86-1,3.65-4.5,3.65ZM82,77.52c0-1.3-.46-1.67-1.9-1.67H73.26v4.09h6.89c1.4,0,1.86-.33,1.86-1.6Z"/><path class="cls-3" d="M86.34,85.53V80c0-2.84,1.25-4,4.46-4h1.71v2.12H90.87c-1.45,0-1.91.39-1.91,1.9v5.5Z"/><path class="cls-3" d="M98.28,85.53c-3.53,0-4.56-1.09-4.56-4.11V80.14c0-3,1-4.13,4.56-4.13h3.18C105,76,106,77.1,106,80.15v1.27c0,3-1,4.11-4.58,4.11Zm5.15-5.31c0-1.61-.42-2-2.32-2H98.63c-1.86,0-2.3.35-2.3,2v1.13c0,1.58.44,2,2.3,2h2.48c1.9,0,2.32-.38,2.32-2Z"/><path class="cls-1" d="M52.5,69.46h1l1.16-2.22H65.28l1.16,2.22h1L67,67.24h.74V66H52.26v1.27H53Z"/><path class="cls-2" d="M56.91,62.44c-2.12,0-2.64-.56-2.64-2.48V55.44c0-1.9.52-2.51,2.62-2.51h1.37V50H56.73c-4.54,0-5.87,1.4-5.87,5.29v4.83c0,3.89,1.33,5.29,5.87,5.29h10.7V62.44Z"/><path class="cls-3" d="M59.13,59.23V61.3H57.52V54.06h5.8c2.07,0,2.71.62,2.71,2.33V57c0,1.73-.6,2.21-2.71,2.21Zm5.29-2.77c0-.79-.28-1-1.15-1H59.13v2.47h4.16c.85,0,1.13-.2,1.13-1Z"/><text class="cls-4" transform="translate(12.6 91.15)">FURNITURE MANU<tspan class="cls-5" x="50.74" y="0">F</tspan><tspan class="cls-6" x="53.45" y="0">ACTURING LLC</tspan></text></svg>