<svg id="Layer_1" data-name="Layer 1" xmlns="http://www.w3.org/2000/svg" viewBox="0 0 234.72 161.28"><defs><style>.cls-1,.cls-3{fill:#2f1110;}.cls-1{fill-rule:evenodd;}.cls-2{fill:#cd6632;}</style></defs><path class="cls-1" d="M85,127.11h5l5.53-10.59h50.43l5.53,10.59h5L154,116.52h3.54v-6.06H83.87v6.06H87.4Z"/><path class="cls-2" d="M106,93.66c-10.13,0-12.61-2.7-12.61-11.86V60.25c0-9,2.48-12,12.51-12h6.51V34.17h-7.27c-21.66,0-28,6.69-28,25.22V82.45c0,18.54,6.36,25.22,28,25.22h51v-14Z"/><path class="cls-3" d="M116.61,78.34v9.87h-7.7V53.68h27.65c9.87,0,13,3,13,11.14v3c0,8.25-2.89,10.53-13,10.53Zm25.21-13.22c0-3.74-1.31-4.81-5.46-4.81H116.61v11.8h19.85c4,0,5.36-1,5.36-4.61Z"/></svg>